<svg width="468" height="361" viewBox="0 0 468 361" fill="none" xmlns="http://www.w3.org/2000/svg">
<path fill-rule="evenodd" clip-rule="evenodd" d="M16.6879 144.383L28.8084 196.016L44.8005 193.073C95.911 172.138 152.198 145.814 208.925 128.701L211.088 128.053C249.104 140.483 287.5 152.849 325.886 163.963C364.22 175.116 402.807 185.32 441.608 194.404C456.944 197.977 461.453 195.76 467.53 190.009L250.024 115.604C270.596 105.086 282.429 96.7746 289.177 84.5062C290.217 82.5357 288.749 81.0607 287.44 80.8733C274.588 79.5518 262.352 80.1802 251 81.9835C232.987 84.9894 217.554 91.0011 205.404 96.7578L31.5531 0.809326C27.2774 1.89552 17.9404 2.15723 27.9195 9.92585C46.806 24.4583 66.2255 38.7481 85.7735 52.4733C115.355 73.3716 145.418 93.6398 176.163 112.798C140.165 135.193 102.583 155.23 64.1357 174.26L54.9861 158.301C66.536 153.532 66.536 153.532 66.536 153.532L46.029 133.499L12.3775 121.558L0.271545 126.208L25.5242 141.866L16.6879 144.383Z" fill="#FFFFFF"/>
<path d="M18.1487 277.044C18.1487 260.954 21.475 246.643 28.1276 234.112C34.9349 221.425 44.527 211.601 56.904 204.639C69.2809 197.522 83.5144 193.964 99.6044 193.964C120.026 193.964 137.199 199.456 151.123 210.441C165.048 221.271 174.021 236.046 178.043 254.766H129.077C126.137 248.577 122.038 243.859 116.777 240.61C111.672 237.361 105.716 235.736 98.9082 235.736C88.3878 235.736 79.956 239.527 73.6128 247.108C67.4244 254.534 64.3301 264.513 64.3301 277.044C64.3301 289.731 67.4244 299.864 73.6128 307.445C79.956 314.871 88.3878 318.584 98.9082 318.584C105.716 318.584 111.672 316.96 116.777 313.711C122.038 310.462 126.137 305.743 129.077 299.555H178.043C174.021 318.275 165.048 333.127 151.123 344.112C137.199 354.942 120.026 360.357 99.6044 360.357C83.5144 360.357 69.2809 356.876 56.904 349.914C44.527 342.797 34.9349 332.973 28.1276 320.441C21.475 307.755 18.1487 293.289 18.1487 277.044Z" fill="#FFFFFF"/>
<path d="M310.51 196.779V232.981H245.067V270.088H293.337V304.666H245.067V360.386H199.582V196.779H310.51Z" fill="#FFFFFF"/>
<path d="M458.929 250.124C458.929 260.026 456.608 269.077 451.967 277.276C447.48 285.321 440.595 291.819 431.313 296.77C422.185 301.566 410.968 303.964 397.663 303.964H375.152V359.196H329.667V195.589H397.663C410.813 195.589 421.953 197.909 431.081 202.551C440.363 207.192 447.325 213.613 451.967 221.812C456.608 230.012 458.929 239.449 458.929 250.124ZM393.253 267.762C406.095 267.762 412.515 261.883 412.515 250.124C412.515 238.212 406.095 232.255 393.253 232.255H375.152V267.762H393.253Z" fill="#FFFFFF"/>
</svg>
